<?xml version="1.0" encoding="UTF-8"?>
<svg width="18px" height="18px" viewBox="0 0 18 18" version="1.1" xmlns="http://www.w3.org/2000/svg" xmlns:xlink="http://www.w3.org/1999/xlink">
    <title>noun_Trash_3549664</title>
    <g id="Page-1" stroke="none" stroke-width="1" fill="none" fill-rule="evenodd">
        <g id="noun_Trash_3549664" fill="#FFFFFF" fill-rule="nonzero">
            <rect id="Rectangle" x="0" y="3.37499628" width="17.4374808" height="1.68749814"></rect>
            <path d="M13.0387356,18 L4.39874515,18 C3.37998572,18.0045176 2.52604263,17.2310892 2.42999732,16.2168571 L1.33031103,4.58436994 L3.01780917,4.42405762 L4.12593295,16.0593573 C4.13906815,16.204725 4.26122384,16.3158867 4.40718264,16.3152945 L13.0387356,16.3152945 C13.1837137,16.316021 13.3054891,16.2064231 13.3199853,16.0621698 L14.4281091,4.42405762 L16.1156072,4.58436994 L14.9990459,16.2168571 C14.9032962,17.2278611 14.0542635,18.0001519 13.0387356,18 Z" id="Path"></path>
            <rect id="Rectangle" x="5.90624348" y="7.31249193" width="1.68749814" height="6.74999255"></rect>
            <rect id="Rectangle" x="9.84373914" y="7.31249193" width="1.68749814" height="6.74999255"></rect>
            <path d="M12.656236,5.06249441 L4.78124472,5.06249441 L4.78124472,1.96874783 C4.78124472,0.881438426 5.66268315,0 6.74999255,0 L10.6874882,0 C11.7747976,0 12.656236,0.881438426 12.656236,1.96874783 L12.656236,5.06249441 Z M6.46874286,3.37499628 L10.9687429,3.37499628 L10.9687429,1.96874783 C10.9687429,1.81341791 10.8428181,1.68749814 10.6874882,1.68749814 L6.74999255,1.68749814 C6.59466264,1.68749814 6.46874286,1.81341791 6.46874286,1.96874783 L6.46874286,3.37499628 Z" id="Shape"></path>
        </g>
    </g>
</svg>